# xmcd CD database file
#
# Track frame offsets:
#	150
#	18787
#	40016
#	54954
#	71203
#	86011
#
# Disc length: 1372 seconds
#
# Revision: 0
# Processed by: cddbd v1.5.2PL0 Copyright (c) Steve Scherf et al.
# Submitted via: CDex 1.51
#
DISCID=42055a06
DTITLE=Caroline Jones - Chasin' Me
DYEAR=2019
DGENRE=Country
TTITLE0=Chasin' Me
TTITLE1=Tough Guys (REMIX)
TTITLE2=All Of The Boys
TTITLE3=God Made Me
TTITLE4=The Line
TTITLE5=Gulf Coast Girl
EXTD=YEAR: 2019
EXTT0=
EXTT1=
EXTT2=
EXTT3=
EXTT4=
EXTT5=
PLAYORDER=
